<svg width="56" height="55" viewBox="0 0 56 55" fill="none" xmlns="http://www.w3.org/2000/svg">
<path d="M49.998 17.4332C47.5053 7.43136 38.4752 0 27.7432 0C17.0112 0 7.98114 7.43136 5.48893 17.4332C2.3484 21.3698 0.462646 26.3577 0.462646 31.7808C0.462646 44.4673 10.7536 54.7902 23.403 54.7902C24.8865 54.7902 26.3373 54.6417 27.7427 54.3713C29.1486 54.6417 30.5994 54.7902 32.0829 54.7902C44.7313 54.7902 55.0222 44.4678 55.0222 31.7808C55.0227 26.3577 53.1385 21.3703 49.998 17.4332ZM49.6248 23.0094C49.6248 27.3859 48.3369 31.4638 46.1264 34.891C46.2648 33.873 46.3424 32.8356 46.3424 31.7808C46.3424 21.5705 39.6749 12.897 30.481 9.89789C31.0103 9.85898 31.5443 9.83184 32.0839 9.83184C38.9046 9.83184 45.0049 12.9799 49.0209 17.9017C49.4114 19.5423 49.6248 21.25 49.6248 23.0094ZM34.4082 24.0806C34.0672 22.9695 33.5863 22.0099 32.9619 21.1998C32.3366 20.3872 31.5836 19.7538 30.7061 19.2986C29.825 18.8444 28.8489 18.615 27.7713 18.615C26.5793 18.615 25.5358 18.8362 24.6425 19.2776C23.7496 19.7195 22.99 20.3309 22.3662 21.1128C21.7404 21.8977 21.2712 22.8435 20.9598 23.9526C20.6484 25.0622 20.4927 26.3019 20.4927 27.6675C20.4927 29.1186 20.6556 30.4341 20.9818 31.6174C21.3075 32.7972 21.7843 33.8095 22.4081 34.6477C23.0329 35.4885 23.7976 36.1352 24.7073 36.5899C25.614 37.0457 26.6354 37.2735 27.7713 37.2735C28.5462 37.2735 29.2512 37.1747 29.898 36.9929C30.7638 36.7523 31.5234 36.358 32.1635 35.7952C30.6923 33.2954 29.8852 29.6722 26.4976 29.2093C25.6201 29.0889 24.8549 29.1105 24.2024 29.2728C24.1223 28.9789 24.3301 27.8805 24.3301 27.8805C24.3301 27.8805 25.884 27.37 26.9152 27.2819C30.0853 27.0105 32.3591 28.9558 33.7695 31.4377C33.9278 31.7173 34.0957 32.0414 34.2647 32.3748C34.2759 32.3988 34.2862 32.4219 34.2994 32.4444C34.4812 32.81 34.668 33.1812 34.8497 33.5351C34.862 33.5617 34.8747 33.5868 34.8885 33.6124C35.0059 33.8392 35.1203 34.0584 35.229 34.255C35.5578 34.8362 35.9361 35.4762 36.47 35.9893C36.5165 36.0313 36.5527 36.0799 36.6002 36.1209C37.2582 36.6929 37.9688 37.0308 38.733 37.1363C39.4921 37.2428 40.1844 36.9146 40.7908 36.7564C41.017 37.0375 41.8598 39.1246 41.9501 39.4175C39.3671 40.3632 36.3536 39.8143 34.2274 38.0913C33.6506 38.4763 33.0303 38.8015 32.3652 39.0662C32.1589 39.1481 31.9394 39.2127 31.7235 39.2813C30.5269 39.6709 29.216 39.8768 27.7713 39.8768C24.1111 39.8768 21.3146 38.846 19.386 36.7809C17.4563 34.7184 16.4915 31.6804 16.4915 27.667C16.4915 25.8738 16.7753 24.2578 17.342 22.8205C17.9096 21.3842 18.6978 20.1665 19.7045 19.1701C20.7117 18.1741 21.9027 17.4055 23.281 16.8648C24.6563 16.3241 26.1541 16.0537 27.7713 16.0537C29.4442 16.0537 30.9608 16.3092 32.3228 16.8213C33.6848 17.3339 34.8553 18.0814 35.834 19.0636C36.8151 20.0452 37.5717 21.2561 38.1107 22.6919C38.6498 24.1313 38.9204 25.7883 38.9204 27.667C38.9204 29.6025 38.657 31.3317 38.1332 32.853C38.0418 33.1172 37.9367 33.363 37.8315 33.6119C37.7008 33.4091 37.5757 33.1884 37.4655 32.9913C37.2684 32.6431 37.0351 32.1745 36.81 31.7239C36.544 31.1919 36.2699 30.643 35.9978 30.1632C35.6599 29.5682 35.2898 29.0224 34.8993 28.5185C34.9095 28.2395 34.9207 27.9583 34.9207 27.6665C34.9207 26.3853 34.7487 25.1902 34.4082 24.0806ZM27.7432 1.06096C37.1959 1.06096 45.2663 7.10518 48.3195 15.5417C44.1636 11.3618 38.4201 8.77087 32.0834 8.77087C30.5999 8.77087 29.1491 8.91834 27.7432 9.18973C26.3373 8.91834 24.887 8.77087 23.4035 8.77087C17.0668 8.77087 11.3233 11.3618 7.16742 15.5417C10.2207 7.10467 18.291 1.06096 27.7432 1.06096ZM6.46651 17.9012C10.4825 12.9799 16.5824 9.83133 23.4035 9.83133C23.9416 9.83133 24.4756 9.85846 25.0065 9.89738C15.8105 12.8964 9.14505 21.57 9.14505 31.7803C9.14505 32.8356 9.22214 33.8725 9.36048 34.8904C7.15057 31.4633 5.86261 27.3854 5.86261 23.0089C5.86261 21.25 6.07548 19.5423 6.46651 17.9012ZM23.4035 53.7292C11.3371 53.7292 1.52038 43.8825 1.52038 31.7808C1.52038 27.4043 2.80937 23.3269 5.01928 19.8987C4.88196 20.9167 4.80487 21.9541 4.80487 23.0094C4.80487 28.433 6.68909 33.4193 9.82911 37.357C11.748 45.0567 17.5426 51.2294 25.0065 53.6642C24.4756 53.7011 23.9416 53.7292 23.4035 53.7292ZM11.5076 39.248C15.6635 43.4278 21.407 46.0183 27.7437 46.0183C34.0804 46.0183 39.8239 43.4278 43.9798 39.248C41.4059 46.3588 35.2688 51.7681 27.7437 53.294C20.2176 51.7681 14.0815 46.3588 11.5076 39.248ZM32.0834 53.7292C31.5438 53.7292 31.0098 53.7011 30.4805 53.6637C37.9428 51.2289 43.7389 45.0561 45.6573 37.3565C48.7973 33.4193 50.6815 28.4325 50.6815 23.0089C50.6815 21.953 50.605 20.9161 50.4666 19.8982C52.6765 23.3264 53.965 27.4038 53.965 31.7803C53.9655 43.8825 44.1498 53.7292 32.0834 53.7292Z" fill="white"/>
</svg>
