<svg width="146" height="85" viewBox="0 0 146 85" fill="none" xmlns="http://www.w3.org/2000/svg">
<path d="M20.3277 83.8867C20.2557 83.6527 19.5829 81.986 19.4022 81.7622C18.9177 81.8882 18.3664 82.1509 17.7589 82.0659C17.1494 81.9814 16.5827 81.7115 16.0569 81.2543C16.0192 81.222 15.989 81.1831 15.9533 81.1493C15.5265 80.7407 15.2243 80.2281 14.9635 79.7652C14.8752 79.6081 14.7828 79.434 14.6898 79.2517C14.6796 79.2312 14.6689 79.2112 14.6587 79.1912C14.5137 78.9076 14.3662 78.6101 14.2197 78.3202C14.2095 78.3013 14.2008 78.2824 14.1911 78.2639C14.0568 77.9982 13.9236 77.7396 13.7965 77.5158C12.6698 75.5337 10.8556 73.9817 8.32149 74.1983C7.49807 74.2684 6.25707 74.6765 6.25707 74.6765C6.25707 74.6765 6.09269 75.5531 6.15701 75.7877C6.6772 75.6581 7.28775 75.6412 7.98865 75.737C10.6963 76.1072 11.339 78.9992 12.5147 80.9952C12.0031 81.4443 11.3972 81.7597 10.706 81.9517C10.1878 82.0961 9.62477 82.176 9.00555 82.176C8.09892 82.176 7.28315 81.9937 6.55877 81.6306C5.83336 81.2671 5.2218 80.7504 4.72305 80.0796C4.22532 79.4094 3.84501 78.6029 3.58466 77.6602C3.3238 76.716 3.19413 75.6653 3.19413 74.5065C3.19413 73.4153 3.31869 72.4266 3.56781 71.5402C3.81693 70.6544 4.19061 69.8996 4.68987 69.2734C5.18811 68.6477 5.79457 68.1602 6.50823 67.8079C7.2219 67.4556 8.05399 67.2795 9.00657 67.2795C9.86725 67.2795 10.6488 67.4618 11.3512 67.8248C12.0532 68.1878 12.654 68.6943 13.1523 69.342C13.6505 69.9903 14.0354 70.7563 14.3075 71.6426C14.5796 72.528 14.7159 73.4834 14.7159 74.5065C14.7159 74.7395 14.7077 74.9643 14.6985 75.1875C15.012 75.589 15.307 76.0247 15.5766 76.4999C15.7935 76.8824 16.013 77.3212 16.2249 77.7462C16.4056 78.1062 16.5914 78.4795 16.7476 78.7575C16.8365 78.9152 16.936 79.0904 17.0407 79.2542C17.1239 79.0545 17.2091 78.8584 17.2816 78.6474C17.7007 77.4329 17.9105 76.0529 17.9105 74.5065C17.9105 73.0062 17.6951 71.6836 17.2642 70.5346C16.8334 69.3886 16.228 68.4219 15.4459 67.6374C14.6643 66.8534 13.7296 66.2564 12.6418 65.8478C11.5554 65.4387 10.342 65.2349 9.00606 65.2349C7.71452 65.2349 6.51895 65.4504 5.42038 65.8826C4.32078 66.3148 3.36974 66.9277 2.56572 67.7234C1.76221 68.5191 1.13278 69.4905 0.679972 70.638C0.226657 71.7855 0 73.0753 0 74.507C0 77.7114 0.770329 80.1365 2.31048 81.7843C3.85113 83.433 6.0835 84.2559 9.00606 84.2559C10.1593 84.2559 11.2073 84.091 12.1645 83.7802C12.336 83.7249 12.5106 83.6742 12.676 83.6082C13.2079 83.3967 13.7026 83.1366 14.1625 82.8299C15.8589 84.2037 18.2653 84.6415 20.3277 83.8867Z" fill="white"/>
<path d="M42.4125 65.7422C42.4349 65.8569 42.4467 65.9583 42.4467 66.0489V66.2532C42.4467 66.5046 42.4349 66.7596 42.4125 67.0203C42.3905 67.2819 42.3568 67.4816 42.3109 67.6173C41.9934 67.6634 41.6371 67.7028 41.2404 67.7366C40.8438 67.7704 40.4757 67.7981 40.1357 67.8221V76.7871C40.1357 77.8772 39.9657 78.8778 39.6257 79.7861C39.2852 80.6961 38.7926 81.4795 38.1479 82.139C37.5016 82.798 36.7134 83.3147 35.7853 83.689C34.8567 84.0638 33.8031 84.2522 32.6244 84.2522C29.9734 84.2522 28.0652 83.6275 26.8982 82.3781C25.7317 81.1277 25.1477 79.2869 25.1477 76.8557V67.9235C24.8077 67.8795 24.4514 67.8339 24.0777 67.7873C23.7046 67.7417 23.358 67.6736 23.0409 67.5835C22.973 67.3326 22.9164 67.0325 22.871 66.6803C22.826 66.328 22.8041 66.0146 22.8041 65.7422H31.096C31.1409 65.9695 31.146 66.2706 31.1133 66.646C31.0791 67.0203 31.0286 67.3224 30.9602 67.5502C30.5523 67.6178 30.0939 67.6741 29.5839 67.7197C29.0739 67.7648 28.6032 67.7986 28.1739 67.8226V76.7195C28.1739 78.4231 28.5302 79.7354 29.2439 80.6566C29.9576 81.5768 31.1638 82.0366 32.8633 82.0366C33.6566 82.0366 34.3473 81.907 34.9364 81.6439C35.5255 81.3837 36.0176 81.0309 36.4147 80.5875C36.8104 80.1451 37.1054 79.6223 37.2979 79.0196C37.4893 78.418 37.5868 77.7764 37.5868 77.0938V67.8226C37.2468 67.7986 36.8558 67.7648 36.4147 67.7197C35.9732 67.6741 35.6036 67.6291 35.3095 67.5835C35.2646 67.3572 35.236 67.0377 35.2248 66.6301C35.2131 66.2199 35.2299 65.925 35.2764 65.7427H42.4125V65.7422Z" fill="white"/>
<path d="M73.8658 81.5593C74.7949 81.5593 75.7975 81.548 76.8726 81.526C77.9487 81.5024 78.9641 81.4349 79.9151 81.3217C79.9605 80.9586 80.0341 80.4927 80.1362 79.9243C80.2377 79.3564 80.3449 78.8787 80.4593 78.4921C80.7084 78.4476 81.0305 78.4025 81.4277 78.3559C81.8233 78.3103 82.147 78.3103 82.3961 78.3559V83.5711H68.1902C68.2132 83.3673 68.2693 83.0888 68.3607 82.736C68.4505 82.3837 68.5526 82.1179 68.666 81.9356C68.9381 81.7764 69.2775 81.634 69.6859 81.5096C70.0943 81.3852 70.4782 81.2884 70.8412 81.2193V67.8236C70.4557 67.7995 70.0474 67.7657 69.618 67.7207C69.1872 67.6751 68.8023 67.63 68.4623 67.5845C68.4168 67.3581 68.3883 67.0386 68.377 66.631C68.3658 66.2209 68.3826 65.9259 68.4281 65.7437H77.1289C77.1508 65.9259 77.1508 66.2214 77.1289 66.631C77.1059 67.0386 77.0722 67.3581 77.0268 67.5845C76.528 67.63 76.0017 67.6751 75.4463 67.7207C74.8904 67.7657 74.3641 67.7995 73.8658 67.8236V81.5593Z" fill="white"/>
<path d="M94.7836 65.2319C96.1191 65.2319 97.3325 65.4352 98.4188 65.8444C99.5067 66.253 100.441 66.85 101.223 67.6345C102.005 68.4174 102.61 69.3841 103.041 70.5311C103.471 71.6797 103.687 73.0028 103.687 74.5031C103.687 76.0484 103.478 77.43 103.058 78.644C102.639 79.8607 102.039 80.8837 101.258 81.7122C100.476 82.5428 99.5409 83.1726 98.4536 83.6048C97.3662 84.0359 96.1441 84.252 94.7841 84.252C91.8606 84.252 89.6287 83.4291 88.0881 81.7803C86.5474 80.1331 85.7776 77.7075 85.7776 74.5031C85.7776 73.0709 86.0042 71.7821 86.4576 70.6335C86.9104 69.486 87.5393 68.5152 88.3433 67.719C89.1473 66.9243 90.0984 66.3103 91.198 65.8787C92.2965 65.4465 93.4921 65.2319 94.7836 65.2319ZM88.9712 74.5031C88.9712 75.6613 89.1009 76.7116 89.3622 77.6563C89.6226 78.5985 90.0034 79.4065 90.5006 80.0767C90.9994 80.7475 91.6109 81.2642 92.3364 81.6272C93.0607 81.9908 93.8765 82.1731 94.7836 82.1731C96.6862 82.1731 98.1125 81.4905 99.0641 80.1274C100.017 78.7638 100.493 76.8892 100.493 74.5031C100.493 73.48 100.356 72.5256 100.084 71.6392C99.8125 70.7534 99.4265 69.9858 98.9288 69.3391C98.4296 68.6903 97.8287 68.1849 97.1278 67.8219C96.4259 67.4588 95.6448 67.2755 94.7836 67.2755C93.8306 67.2755 92.9995 67.4527 92.2848 67.8045C91.5716 68.1573 90.9652 68.6447 90.4664 69.2699C89.9672 69.8957 89.5935 70.6509 89.3449 71.5373C89.0963 72.4237 88.9712 73.4124 88.9712 74.5031Z" fill="white"/>
<path d="M137.094 74.9119C137.184 74.6851 137.298 74.4347 137.435 74.1618C137.569 73.8894 137.705 73.6277 137.842 73.3778L140.016 69.6286C140.153 69.3792 140.339 69.0884 140.578 68.7597C140.817 68.4299 141.047 68.1631 141.274 67.9583C140.934 67.9132 140.55 67.8451 140.119 67.7545C139.687 67.6639 139.348 67.5615 139.099 67.4468C139.007 67.221 138.933 66.9424 138.878 66.6121C138.822 66.2829 138.792 65.9936 138.792 65.7427H145.488C145.488 65.9936 145.443 66.3059 145.352 66.6807C145.26 67.0545 145.171 67.3449 145.08 67.5502C144.899 67.6178 144.655 67.6859 144.35 67.754C144.042 67.8226 143.766 67.8672 143.516 67.8907L137.976 76.9576V81.3212C138.428 81.3668 138.956 81.4405 139.557 81.5429C140.157 81.6443 140.628 81.7529 140.968 81.8666C141.013 82.0939 141.053 82.3735 141.087 82.7017C141.12 83.032 141.114 83.3218 141.07 83.5707H132.062C132.086 83.3669 132.142 83.0883 132.234 82.7355C132.324 82.3832 132.426 82.1175 132.54 81.9352C132.857 81.7759 133.236 81.6336 133.679 81.5092C134.119 81.3847 134.544 81.288 134.953 81.2188V77.06L129.719 68.1288C129.016 67.9486 128.393 67.6977 127.85 67.3797C127.758 67.1749 127.69 66.9148 127.645 66.5952C127.599 66.2773 127.578 65.9941 127.578 65.7432H135.565C135.565 66.0391 135.536 66.3402 135.48 66.6469C135.423 66.9542 135.361 67.2332 135.292 67.4831C135.021 67.5963 134.642 67.6931 134.154 67.7719C133.667 67.8508 133.231 67.9138 132.846 67.9588C133.072 68.1636 133.299 68.414 133.527 68.7095C133.752 69.0049 133.945 69.2886 134.103 69.561L136.177 73.3788C136.29 73.6062 136.415 73.8679 136.55 74.1628C136.686 74.4583 136.788 74.7081 136.856 74.9129H137.094V74.9119Z" fill="white"/>
<path d="M57.8359 78.0825L58.3852 79.4789L57.8416 78.0825H57.8359Z" fill="white"/>
<path d="M57.3658 81.9347C57.2524 82.117 57.1503 82.3781 57.06 82.7181C56.9691 83.0597 56.9124 83.3438 56.89 83.5702H64.6392C64.6157 83.2978 64.5596 83.0033 64.4692 82.6848C64.3784 82.3663 64.2768 82.0827 64.1634 81.8313C63.9368 81.7632 63.6591 81.7017 63.3308 81.6438C63.0021 81.5875 62.7131 81.5476 62.464 81.5256L55.769 65.1636L52.8811 65.5369L46.2876 81.1845C45.9701 81.2532 45.6184 81.3663 45.2345 81.5256C44.8486 81.6853 44.5315 81.8558 44.2835 82.0366C44.1696 82.2639 44.0895 82.5143 44.0451 82.7867C43.9996 83.0597 43.9654 83.3213 43.9424 83.5702H51.2501C51.2501 83.2978 51.221 83.0033 51.1649 82.6848C51.1077 82.3663 51.0464 82.1052 50.9775 81.8999C50.7059 81.7867 50.343 81.6848 49.8907 81.5937C49.4374 81.5015 49.0407 81.4339 48.7007 81.3888C48.8595 81.1845 49.029 80.8998 49.2107 80.5363C49.3914 80.1738 49.5384 79.843 49.6523 79.548L50.2301 78.082H55.2554L56.0058 76.105H51.0117L53.1864 70.5483C53.2543 70.3895 53.3339 70.1914 53.4248 69.9517C53.5146 69.7131 53.5999 69.4689 53.6795 69.2185C53.7592 68.9696 53.8327 68.7305 53.9 68.5031C53.969 68.2758 54.0134 68.0945 54.0369 67.9578H54.2742C54.3197 68.2758 54.4156 68.6957 54.5627 69.219C54.7102 69.7428 54.8404 70.1632 54.9537 70.4807L56.527 74.7486L57.8369 78.0826H57.8426L58.3862 79.4794C58.4996 79.7989 58.6583 80.1405 58.862 80.5025C59.0662 80.8671 59.2699 81.1635 59.4741 81.3894C59.179 81.4349 58.8161 81.5087 58.3862 81.6111C57.9554 81.713 57.6149 81.821 57.3658 81.9347Z" fill="white"/>
<path d="M120.645 81.7987C120.055 81.8903 119.478 81.9528 118.911 81.9856C118.345 82.0199 117.801 82.0373 117.28 82.0373C115.468 82.0373 114.007 81.4182 112.896 80.1796C111.785 78.9419 111.23 77.0382 111.23 74.4707C111.23 73.2208 111.394 72.1348 111.724 71.2151C112.051 70.2945 112.51 69.5392 113.099 68.9483C113.688 68.3574 114.385 67.9135 115.189 67.618C115.992 67.322 116.882 67.1761 117.857 67.1761C118.446 67.1761 118.996 67.2432 119.506 67.3794C120.016 67.5166 120.53 67.7199 121.052 67.9938V70.1434H123.513C123.566 69.9273 123.612 69.6944 123.652 69.4409C123.731 68.9299 123.771 68.4127 123.771 67.8909C123.771 67.7086 123.763 67.5038 123.752 67.2775C123.741 67.0507 123.714 66.8448 123.668 66.6635C122.897 66.2094 122.037 65.8576 121.086 65.6077C120.135 65.3573 119.08 65.2334 117.924 65.2334C116.429 65.2334 115.063 65.4771 113.829 65.9661C112.595 66.4536 111.541 67.1362 110.67 68.0102C109.797 68.8858 109.117 69.9253 108.631 71.1307C108.142 72.3355 107.9 73.6643 107.9 75.1175C107.9 76.4601 108.098 77.6869 108.494 78.8006C108.89 79.9133 109.452 80.8739 110.175 81.6814C110.901 82.4879 111.778 83.1182 112.81 83.5714C113.841 84.0261 114.991 84.2539 116.259 84.2539C116.961 84.2539 117.664 84.2135 118.367 84.1341C119.069 84.0537 119.744 83.958 120.389 83.8448C121.035 83.7306 121.624 83.6 122.156 83.4531C122.689 83.3046 123.146 83.1628 123.533 83.0271V77.7985L120.644 78.7105V81.7987H120.645Z" fill="white"/>
<path d="M118.326 74.605L117.635 76.4279C118.849 76.5892 122.9 77.0613 124.949 76.5149C125.079 76.4617 125.208 76.4064 125.335 76.3449C125.425 76.1406 125.52 75.8626 125.624 75.5103C125.725 75.158 125.787 74.8564 125.811 74.605H118.326Z" fill="white"/>
<path d="M94.998 17.4332C92.5053 7.43136 83.4752 0 72.7432 0C62.0112 0 52.9811 7.43136 50.4889 17.4332C47.3484 21.3698 45.4626 26.3577 45.4626 31.7808C45.4626 44.4673 55.7536 54.7902 68.403 54.7902C69.8865 54.7902 71.3373 54.6417 72.7427 54.3713C74.1486 54.6417 75.5994 54.7902 77.0829 54.7902C89.7313 54.7902 100.022 44.4678 100.022 31.7808C100.023 26.3577 98.1385 21.3703 94.998 17.4332ZM94.6248 23.0094C94.6248 27.3859 93.3369 31.4638 91.1264 34.891C91.2648 33.873 91.3424 32.8356 91.3424 31.7808C91.3424 21.5705 84.6749 12.897 75.481 9.89789C76.0103 9.85898 76.5443 9.83184 77.0839 9.83184C83.9046 9.83184 90.0049 12.9799 94.0209 17.9017C94.4114 19.5423 94.6248 21.25 94.6248 23.0094ZM79.4082 24.0806C79.0672 22.9695 78.5863 22.0099 77.9619 21.1998C77.3366 20.3872 76.5836 19.7538 75.7061 19.2986C74.825 18.8444 73.8489 18.615 72.7713 18.615C71.5793 18.615 70.5358 18.8362 69.6425 19.2776C68.7496 19.7195 67.99 20.3309 67.3662 21.1128C66.7404 21.8977 66.2712 22.8435 65.9598 23.9526C65.6484 25.0622 65.4927 26.3019 65.4927 27.6675C65.4927 29.1186 65.6556 30.4341 65.9818 31.6174C66.3075 32.7972 66.7843 33.8095 67.4081 34.6477C68.0329 35.4885 68.7976 36.1352 69.7073 36.5899C70.614 37.0457 71.6354 37.2735 72.7713 37.2735C73.5462 37.2735 74.2512 37.1747 74.898 36.9929C75.7638 36.7523 76.5234 36.358 77.1635 35.7952C75.6923 33.2954 74.8852 29.6722 71.4976 29.2093C70.6201 29.0889 69.8549 29.1105 69.2024 29.2728C69.1223 28.9789 69.3301 27.8805 69.3301 27.8805C69.3301 27.8805 70.884 27.37 71.9152 27.2819C75.0853 27.0105 77.3591 28.9558 78.7695 31.4377C78.9278 31.7173 79.0957 32.0414 79.2647 32.3748C79.2759 32.3988 79.2862 32.4219 79.2994 32.4444C79.4812 32.81 79.668 33.1812 79.8497 33.5351C79.862 33.5617 79.8747 33.5868 79.8885 33.6124C80.0059 33.8392 80.1203 34.0584 80.229 34.255C80.5578 34.8362 80.9361 35.4762 81.47 35.9893C81.5165 36.0313 81.5527 36.0799 81.6002 36.1209C82.2582 36.6929 82.9688 37.0308 83.733 37.1363C84.4921 37.2428 85.1844 36.9146 85.7908 36.7564C86.017 37.0375 86.8598 39.1246 86.9501 39.4175C84.3671 40.3632 81.3536 39.8143 79.2274 38.0913C78.6506 38.4763 78.0303 38.8015 77.3652 39.0662C77.1589 39.1481 76.9394 39.2127 76.7235 39.2813C75.5269 39.6709 74.216 39.8768 72.7713 39.8768C69.1111 39.8768 66.3146 38.846 64.386 36.7809C62.4563 34.7184 61.4915 31.6804 61.4915 27.667C61.4915 25.8738 61.7753 24.2578 62.342 22.8205C62.9096 21.3842 63.6978 20.1665 64.7045 19.1701C65.7117 18.1741 66.9027 17.4055 68.281 16.8648C69.6563 16.3241 71.1541 16.0537 72.7713 16.0537C74.4442 16.0537 75.9608 16.3092 77.3228 16.8213C78.6848 17.3339 79.8553 18.0814 80.834 19.0636C81.8151 20.0452 82.5717 21.2561 83.1107 22.6919C83.6498 24.1313 83.9204 25.7883 83.9204 27.667C83.9204 29.6025 83.657 31.3317 83.1332 32.853C83.0418 33.1172 82.9367 33.363 82.8315 33.6119C82.7008 33.4091 82.5757 33.1884 82.4655 32.9913C82.2684 32.6431 82.0351 32.1745 81.81 31.7239C81.544 31.1919 81.2699 30.643 80.9978 30.1632C80.6599 29.5682 80.2898 29.0224 79.8993 28.5185C79.9095 28.2395 79.9207 27.9583 79.9207 27.6665C79.9207 26.3853 79.7487 25.1902 79.4082 24.0806ZM72.7432 1.06096C82.1959 1.06096 90.2663 7.10518 93.3195 15.5417C89.1636 11.3618 83.4201 8.77087 77.0834 8.77087C75.5999 8.77087 74.1491 8.91834 72.7432 9.18973C71.3373 8.91834 69.887 8.77087 68.4035 8.77087C62.0668 8.77087 56.3233 11.3618 52.1674 15.5417C55.2207 7.10467 63.291 1.06096 72.7432 1.06096ZM51.4665 17.9012C55.4825 12.9799 61.5824 9.83133 68.4035 9.83133C68.9416 9.83133 69.4756 9.85846 70.0065 9.89738C60.8105 12.8964 54.1451 21.57 54.1451 31.7803C54.1451 32.8356 54.2221 33.8725 54.3605 34.8904C52.1506 31.4633 50.8626 27.3854 50.8626 23.0089C50.8626 21.25 51.0755 19.5423 51.4665 17.9012ZM68.4035 53.7292C56.3371 53.7292 46.5204 43.8825 46.5204 31.7808C46.5204 27.4043 47.8094 23.3269 50.0193 19.8987C49.882 20.9167 49.8049 21.9541 49.8049 23.0094C49.8049 28.433 51.6891 33.4193 54.8291 37.357C56.748 45.0567 62.5426 51.2294 70.0065 53.6642C69.4756 53.7011 68.9416 53.7292 68.4035 53.7292ZM56.5076 39.248C60.6635 43.4278 66.407 46.0183 72.7437 46.0183C79.0804 46.0183 84.8239 43.4278 88.9798 39.248C86.4059 46.3588 80.2688 51.7681 72.7437 53.294C65.2176 51.7681 59.0815 46.3588 56.5076 39.248ZM77.0834 53.7292C76.5438 53.7292 76.0098 53.7011 75.4805 53.6637C82.9428 51.2289 88.7389 45.0561 90.6573 37.3565C93.7973 33.4193 95.6815 28.4325 95.6815 23.0089C95.6815 21.953 95.605 20.9161 95.4666 19.8982C97.6765 23.3264 98.965 27.4038 98.965 31.7803C98.9655 43.8825 89.1498 53.7292 77.0834 53.7292Z" fill="white"/>
</svg>
