<svg width="32" height="32" viewBox="0 0 32 32" fill="none" xmlns="http://www.w3.org/2000/svg">
<path d="M12.75 3H4.25C3.55964 3 3 3.55964 3 4.25V12.75C3 13.4404 3.55964 14 4.25 14H12.75C13.4404 14 14 13.4404 14 12.75V4.25C14 3.55964 13.4404 3 12.75 3Z" stroke="#448EC7" stroke-width="2" stroke-linecap="round" stroke-linejoin="round"/>
<path d="M27.75 3H19.25C18.5596 3 18 3.55964 18 4.25V12.75C18 13.4404 18.5596 14 19.25 14H27.75C28.4404 14 29 13.4404 29 12.75V4.25C29 3.55964 28.4404 3 27.75 3Z" stroke="#448EC7" stroke-width="2" stroke-linecap="round" stroke-linejoin="round"/>
<path d="M12.75 18H4.25C3.55964 18 3 18.5596 3 19.25V27.75C3 28.4404 3.55964 29 4.25 29H12.75C13.4404 29 14 28.4404 14 27.75V19.25C14 18.5596 13.4404 18 12.75 18Z" stroke="#448EC7" stroke-width="2" stroke-linecap="round" stroke-linejoin="round"/>
<path d="M27.75 18H19.25C18.5596 18 18 18.5596 18 19.25V27.75C18 28.4404 18.5596 29 19.25 29H27.75C28.4404 29 29 28.4404 29 27.75V19.25C29 18.5596 28.4404 18 27.75 18Z" stroke="#448EC7" stroke-width="2" stroke-linecap="round" stroke-linejoin="round"/>
</svg>
