<svg width="32" height="34" viewBox="0 0 32 34" fill="none" xmlns="http://www.w3.org/2000/svg">
<path d="M2 2.09314V30.3499C2 30.6275 2.10536 30.8937 2.29289 31.0899C2.48043 31.2862 2.73478 31.3965 3 31.3965H30" stroke="#F2D458" stroke-width="2" stroke-linecap="round" stroke-linejoin="round"/>
<path d="M9.75 14.6516H7.25C6.55964 14.6516 6 15.2373 6 15.9598V25.902C6 26.6245 6.55964 27.2102 7.25 27.2102H9.75C10.4404 27.2102 11 26.6245 11 25.902V15.9598C11 15.2373 10.4404 14.6516 9.75 14.6516Z" stroke="#F2D458" stroke-width="2" stroke-linecap="round" stroke-linejoin="round"/>
<path d="M18.75 11.512H16.25C15.5596 11.512 15 12.0977 15 12.8201V25.902C15 26.6245 15.5596 27.2102 16.25 27.2102H18.75C19.4404 27.2102 20 26.6245 20 25.902V12.8201C20 12.0977 19.4404 11.512 18.75 11.512Z" stroke="#F2D458" stroke-width="2" stroke-linecap="round" stroke-linejoin="round"/>
<path d="M27.7275 7.32581H25.2275C24.5372 7.32581 23.9775 7.9115 23.9775 8.63399V25.902C23.9775 26.6245 24.5372 27.2102 25.2275 27.2102H27.7275C28.4179 27.2102 28.9775 26.6245 28.9775 25.902V8.63399C28.9775 7.9115 28.4179 7.32581 27.7275 7.32581Z" stroke="#F2D458" stroke-width="2" stroke-linecap="round" stroke-linejoin="round"/>
</svg>
