<svg width="76" height="76" viewBox="0 0 76 76" fill="none" xmlns="http://www.w3.org/2000/svg">
<path d="M72.0392 45.5286C74.5193 43.8216 76 41.007 76 38C76 34.993 74.5193 32.1784 72.0394 30.4714C71.0747 29.8073 70.7398 28.5577 71.2433 27.5003C72.5375 24.7819 72.4126 21.6042 70.909 19C69.4054 16.396 66.716 14.6989 63.7147 14.4603C62.5473 14.3676 61.6324 13.4529 61.5398 12.2856C61.5266 12.1187 61.5082 11.9477 61.4852 11.7772C61.4028 11.1692 60.8419 10.7427 60.2353 10.8255C59.6275 10.9078 59.2015 11.4674 59.2837 12.0752C59.3014 12.2053 59.3153 12.335 59.3254 12.4613C59.505 14.7231 61.2771 16.4953 63.539 16.6749C65.8114 16.8554 67.8475 18.1398 68.9854 20.1108C70.1234 22.0817 70.2176 24.4873 69.2378 26.5455C68.2624 28.5941 68.9111 31.0148 70.7801 32.3012C72.6578 33.5936 73.7789 35.7242 73.7789 38C73.7789 40.2758 72.6578 42.4064 70.7799 43.6988C68.9111 44.9852 68.2626 47.4059 69.2378 49.4545C70.2176 51.5127 70.1232 53.9183 68.9854 55.8892C67.8474 57.8602 65.8114 59.1446 63.539 59.3251C61.2769 59.5049 59.505 61.2769 59.3254 63.5387C59.1448 65.8112 57.8603 67.8474 55.8894 68.9851C53.9186 70.1231 51.5133 70.2175 49.4548 69.2376C47.4063 68.262 44.9856 68.9111 43.6991 70.7799C42.4065 72.6576 40.2761 73.7788 38.0003 73.7788C35.7245 73.7788 33.5941 72.6576 32.3015 70.7799C31.0151 68.9111 28.5946 68.2624 26.5458 69.2376C24.4876 70.2176 22.082 70.1232 20.1112 68.9851C18.1404 67.8474 16.8558 65.8114 16.6752 63.5388C16.4956 61.2771 14.7237 59.5049 12.4616 59.3251C10.1892 59.1446 8.15308 57.8602 7.01516 55.8892C5.87723 53.9183 5.78298 51.5127 6.76281 49.4545C7.7382 47.4059 7.08952 44.9852 5.22055 43.6988C3.34281 42.4064 2.22166 40.2758 2.22166 38C2.22166 35.7242 3.34281 33.5936 5.2207 32.3012C7.08952 31.0148 7.73805 28.5941 6.76281 26.5455C5.78298 24.4873 5.87738 22.0817 7.01516 20.1108C8.15323 18.1398 10.1892 16.8554 12.4616 16.6749C14.7235 16.4953 16.4956 14.7232 16.6752 12.4615C16.8558 10.1889 18.1402 8.15278 20.1112 7.01486C22.0819 5.87709 24.4876 5.78253 26.5458 6.76252C28.5947 7.73775 31.0151 7.08908 32.3015 5.22025C33.5941 3.34252 35.7245 2.22137 38.0003 2.22137C40.2761 2.22137 42.4065 3.34252 43.6991 5.22025C44.9855 7.08893 47.406 7.73775 49.4548 6.76252C51.5132 5.78253 53.9186 5.87694 55.8894 7.01486C56.4575 7.34291 56.9731 7.74621 57.4222 8.21364C57.8468 8.65584 58.5501 8.67023 58.9926 8.24526C59.4351 7.82028 59.4492 7.11728 59.0242 6.67479C58.4303 6.0564 57.7493 5.52351 57 5.09096C54.3957 3.58744 51.2179 3.4626 48.4999 4.75668C47.4424 5.26018 46.1929 4.92545 45.5288 3.96061C43.8216 1.48066 41.0069 0 38 0C34.9931 0 32.1784 1.48066 30.4714 3.96061C29.8071 4.9253 28.5573 5.25988 27.5003 4.75668C24.7821 3.46275 21.6045 3.58744 19.0001 5.09096C16.3961 6.59434 14.699 9.28373 14.4605 12.2854C14.3677 13.4529 13.453 14.3676 12.2856 14.4603C9.28417 14.6989 6.59463 16.396 5.09096 19C3.58744 21.6042 3.4626 24.7819 4.75668 27.5003C5.26003 28.5577 4.9253 29.8073 3.96076 30.4714C1.48066 32.1784 0 34.993 0 38C0 41.007 1.48066 43.8216 3.96061 45.5286C4.9253 46.1927 5.26018 47.4423 4.75668 48.4997C3.46245 51.2181 3.58744 54.3958 5.09096 57C6.59463 59.6042 9.28402 61.3011 12.2853 61.5397C13.4527 61.6324 14.3676 62.5471 14.4602 63.7147C14.6989 66.7163 16.396 69.4057 18.9999 70.9089C21.6039 72.4126 24.7818 72.5374 27.5 71.2432C28.5577 70.74 29.807 71.0747 30.4711 72.0392C32.1784 74.5193 34.9931 76 38 76C41.0069 76 43.8216 74.5193 45.5286 72.0394C46.1929 71.0747 47.4427 70.7401 48.4997 71.2433C51.2179 72.5374 54.3957 72.4124 56.9999 70.909C59.6039 69.4057 61.301 66.7163 61.5395 63.7146C61.6323 62.5471 62.547 61.6324 63.7144 61.5397C66.7157 61.3013 69.4052 59.6042 70.9087 57C72.4123 54.3958 72.5371 51.2181 71.243 48.4997C70.7398 47.4423 71.0745 46.1927 72.0392 45.5286Z" fill="white"/>
<path d="M13.9687 47.0017C13.4044 47.2425 13.1423 47.895 13.3831 48.4592C17.5988 58.3368 27.2615 64.7192 38.0001 64.7192C52.7521 64.7192 64.7537 52.7176 64.7537 37.9656C64.7537 23.2135 52.7521 11.2119 38.0001 11.2119C23.2481 11.2119 11.2465 23.2135 11.2465 37.9656C11.2465 39.7719 11.4277 41.5776 11.785 43.3323C11.9075 43.9335 12.4942 44.3216 13.0951 44.199C13.6961 44.0766 14.0841 43.4901 13.9618 42.8891C13.6339 41.2797 13.4678 39.6233 13.4678 37.9656C13.4678 24.4384 24.473 13.4333 38.0002 13.4333C51.5275 13.4333 62.5327 24.4384 62.5327 37.9656C62.5327 51.4927 51.5273 62.498 38.0001 62.498C28.1529 62.498 19.2921 56.6452 15.4262 47.5874C15.1852 47.0232 14.5332 46.7612 13.9687 47.0017Z" fill="white"/>
<path d="M25.5418 34.9455V23.7356C25.5418 23.1223 25.0447 22.625 24.4312 22.625C23.8177 22.625 23.3204 23.1223 23.3204 23.7356V34.9455C23.3204 35.5588 23.8177 36.0561 24.4312 36.0561C25.0447 36.0561 25.5418 35.5588 25.5418 34.9455Z" fill="white"/>
<path d="M33.1116 33.8349C31.917 33.8349 30.7644 33.3501 30.0283 32.538C29.6161 32.0833 28.9137 32.049 28.4595 32.4609C28.0049 32.8728 27.9704 33.5752 28.3823 34.0298C29.5322 35.2986 31.3003 36.0562 33.1116 36.0562C35.2972 36.0562 37.2021 34.6182 37.5428 32.7112C37.8011 31.2641 37.1294 29.3681 34.4696 28.3869C33.0456 27.8616 31.7233 27.2886 31.3688 27.1331C31.051 26.8948 30.8973 26.5179 30.9559 26.1103C31.0316 25.5834 31.441 25.1591 32.0512 24.9752C33.7903 24.4515 35.3691 25.7136 35.4043 25.7421C35.8739 26.1326 36.5711 26.0708 36.9646 25.6028C37.3593 25.1333 37.2988 24.4327 36.8291 24.0378C36.7282 23.9531 34.3236 21.9704 31.4105 22.8483C29.9725 23.2814 28.9557 24.4106 28.7569 25.7947C28.5715 27.0864 29.1311 28.3289 30.2174 29.0369C30.2664 29.0688 30.3179 29.0969 30.3715 29.1208C30.4361 29.1496 31.9712 29.833 33.7008 30.471C34.8847 30.9077 35.488 31.5819 35.3562 32.3207C35.2232 33.0651 34.3474 33.8349 33.1116 33.8349Z" fill="white"/>
<path d="M52.6796 29.3406C52.6796 25.6377 49.6671 22.625 45.964 22.625C42.261 22.625 39.2483 25.6377 39.2483 29.3406C39.2483 33.0435 42.261 36.0562 45.964 36.0562C49.6671 36.0562 52.6796 33.0437 52.6796 29.3406ZM41.4698 29.3406C41.4698 26.8624 43.4859 24.8464 45.9642 24.8464C48.4422 24.8464 50.4584 26.8624 50.4584 29.3406C50.4584 31.8188 48.4423 33.8349 45.9642 33.8349C43.4859 33.8349 41.4698 31.8188 41.4698 29.3406Z" fill="white"/>
<path d="M18.0466 38.9578C18.0466 39.5711 18.5437 40.0684 19.1572 40.0684H56.8427C57.4562 40.0684 57.9533 39.5711 57.9533 38.9578C57.9533 38.3444 57.4562 37.8472 56.8427 37.8472H19.1574C18.5439 37.8472 18.0466 38.3444 18.0466 38.9578Z" fill="white"/>
<path d="M26.6785 45.1852C26.6785 45.5932 26.6025 46.0052 26.4505 46.4212C26.3065 46.8372 26.1185 47.2452 25.8865 47.6452C25.6625 48.0452 25.4105 48.4332 25.1305 48.8092C24.8585 49.1772 24.5905 49.5172 24.3265 49.8292L23.6905 50.3212V50.3812L24.5545 50.2132H26.8585V51.5332H21.8065V50.7292C21.9985 50.5292 22.2145 50.2972 22.4545 50.0332C22.6945 49.7612 22.9345 49.4772 23.1745 49.1812C23.4225 48.8772 23.6625 48.5652 23.8945 48.2452C24.1265 47.9252 24.3345 47.6052 24.5185 47.2852C24.7025 46.9572 24.8465 46.6412 24.9505 46.3372C25.0625 46.0332 25.1185 45.7452 25.1185 45.4732C25.1185 45.1452 25.0225 44.8772 24.8305 44.6692C24.6465 44.4532 24.3505 44.3452 23.9425 44.3452C23.6865 44.3452 23.4225 44.4012 23.1505 44.5132C22.8865 44.6172 22.6625 44.7532 22.4785 44.9212L21.8545 43.8172C22.1665 43.5612 22.5185 43.3572 22.9105 43.2052C23.3105 43.0452 23.7785 42.9652 24.3145 42.9652C24.6585 42.9652 24.9745 43.0132 25.2625 43.1092C25.5505 43.2052 25.7985 43.3452 26.0065 43.5292C26.2145 43.7132 26.3785 43.9452 26.4985 44.2252C26.6185 44.4972 26.6785 44.8172 26.6785 45.1852ZM29.0351 51.5332L31.7831 45.0652L32.3111 44.4772L31.5911 44.5972H28.5071V43.1332H33.9191V43.5892L30.5591 51.5332H29.0351ZM35.0757 47.3212C35.0757 45.8492 35.3277 44.7572 35.8317 44.0452C36.3357 43.3252 37.0597 42.9652 38.0037 42.9652C39.0117 42.9652 39.7517 43.3212 40.2237 44.0332C40.6957 44.7372 40.9317 45.8332 40.9317 47.3212C40.9317 48.8012 40.6757 49.9012 40.1637 50.6212C39.6597 51.3412 38.9357 51.7012 37.9917 51.7012C36.9917 51.7012 36.2557 51.3252 35.7837 50.5732C35.3117 49.8132 35.0757 48.7292 35.0757 47.3212ZM36.6357 47.3212C36.6357 48.2972 36.7397 49.0532 36.9477 49.5892C37.1637 50.1172 37.5157 50.3812 38.0037 50.3812C38.4757 50.3812 38.8197 50.1372 39.0357 49.6492C39.2597 49.1612 39.3717 48.3852 39.3717 47.3212C39.3717 46.3532 39.2677 45.6052 39.0597 45.0772C38.8517 44.5492 38.4957 44.2852 37.9917 44.2852C37.5117 44.2852 37.1637 44.5332 36.9477 45.0292C36.7397 45.5252 36.6357 46.2892 36.6357 47.3212ZM41.8843 47.3212C41.8843 45.8492 42.1363 44.7572 42.6403 44.0452C43.1443 43.3252 43.8683 42.9652 44.8123 42.9652C45.8203 42.9652 46.5603 43.3212 47.0323 44.0332C47.5043 44.7372 47.7403 45.8332 47.7403 47.3212C47.7403 48.8012 47.4843 49.9012 46.9723 50.6212C46.4683 51.3412 45.7443 51.7012 44.8003 51.7012C43.8003 51.7012 43.0643 51.3252 42.5923 50.5732C42.1203 49.8132 41.8843 48.7292 41.8843 47.3212ZM43.4443 47.3212C43.4443 48.2972 43.5483 49.0532 43.7563 49.5892C43.9723 50.1172 44.3243 50.3812 44.8123 50.3812C45.2843 50.3812 45.6283 50.1372 45.8443 49.6492C46.0683 49.1612 46.1803 48.3852 46.1803 47.3212C46.1803 46.3532 46.0763 45.6052 45.8683 45.0772C45.6603 44.5492 45.3043 44.2852 44.8003 44.2852C44.3203 44.2852 43.9723 44.5332 43.7563 45.0292C43.5483 45.5252 43.4443 46.2892 43.4443 47.3212ZM49.4249 50.2132H51.0929V45.4732L51.2729 44.6572L50.6969 45.3652L49.6289 46.0972L48.9689 45.1972L51.7049 42.9892H52.5809V50.2132H54.2129V51.5332H49.4249V50.2132Z" fill="white"/>
</svg>
