<svg width="32" height="32" viewBox="0 0 32 32" fill="none" xmlns="http://www.w3.org/2000/svg">
<path d="M9 6.5C9 5.11929 7.88071 4 6.5 4C5.11929 4 4 5.11929 4 6.5C4 7.88071 5.11929 9 6.5 9C7.88071 9 9 7.88071 9 6.5Z" stroke="#D53026" stroke-width="2" stroke-miterlimit="10"/>
<path d="M18.5 6.5C18.5 5.11929 17.3807 4 16 4C14.6193 4 13.5 5.11929 13.5 6.5C13.5 7.88071 14.6193 9 16 9C17.3807 9 18.5 7.88071 18.5 6.5Z" stroke="#D53026" stroke-width="2" stroke-miterlimit="10"/>
<path d="M28 6.5C28 5.11929 26.8807 4 25.5 4C24.1193 4 23 5.11929 23 6.5C23 7.88071 24.1193 9 25.5 9C26.8807 9 28 7.88071 28 6.5Z" stroke="#D53026" stroke-width="2" stroke-miterlimit="10"/>
<path d="M9 16C9 14.6193 7.88071 13.5 6.5 13.5C5.11929 13.5 4 14.6193 4 16C4 17.3807 5.11929 18.5 6.5 18.5C7.88071 18.5 9 17.3807 9 16Z" stroke="#D53026" stroke-width="2" stroke-miterlimit="10"/>
<path d="M18.5 16C18.5 14.6193 17.3807 13.5 16 13.5C14.6193 13.5 13.5 14.6193 13.5 16C13.5 17.3807 14.6193 18.5 16 18.5C17.3807 18.5 18.5 17.3807 18.5 16Z" stroke="#D53026" stroke-width="2" stroke-miterlimit="10"/>
<path d="M28 16C28 14.6193 26.8807 13.5 25.5 13.5C24.1193 13.5 23 14.6193 23 16C23 17.3807 24.1193 18.5 25.5 18.5C26.8807 18.5 28 17.3807 28 16Z" stroke="#D53026" stroke-width="2" stroke-miterlimit="10"/>
<path d="M9 25.5C9 24.1193 7.88071 23 6.5 23C5.11929 23 4 24.1193 4 25.5C4 26.8807 5.11929 28 6.5 28C7.88071 28 9 26.8807 9 25.5Z" stroke="#D53026" stroke-width="2" stroke-miterlimit="10"/>
<path d="M18.5 25.5C18.5 24.1193 17.3807 23 16 23C14.6193 23 13.5 24.1193 13.5 25.5C13.5 26.8807 14.6193 28 16 28C17.3807 28 18.5 26.8807 18.5 25.5Z" stroke="#D53026" stroke-width="2" stroke-miterlimit="10"/>
<path d="M28 25.5C28 24.1193 26.8807 23 25.5 23C24.1193 23 23 24.1193 23 25.5C23 26.8807 24.1193 28 25.5 28C26.8807 28 28 26.8807 28 25.5Z" stroke="#D53026" stroke-width="2" stroke-miterlimit="10"/>
</svg>
